<mxfile host="Electron" modified="2024-03-08T18:06:54.921Z" agent="Mozilla/5.0 (Windows NT 10.0; Win64; x64) AppleWebKit/537.36 (KHTML, like Gecko) draw.io/23.1.5 Chrome/120.0.6099.109 Electron/28.1.0 Safari/537.36" etag="-KB2SCfypAHRmoHqPYen" version="23.1.5" type="device">
  <diagram name="Page-1" id="l-5uWVbsXPdIGVEoL2Zx">
    <mxGraphModel dx="1222" dy="1834" grid="1" gridSize="10" guides="1" tooltips="1" connect="1" arrows="1" fold="1" page="1" pageScale="1" pageWidth="850" pageHeight="1100" math="0" shadow="0">
      <root>
        <mxCell id="0" />
        <mxCell id="1" parent="0" />
        <mxCell id="-rKjZkoPSQtINy3XwLuV-3" style="edgeStyle=orthogonalEdgeStyle;rounded=0;orthogonalLoop=1;jettySize=auto;html=1;entryX=0;entryY=0.5;entryDx=0;entryDy=0;" edge="1" parent="1" source="-rKjZkoPSQtINy3XwLuV-1" target="-rKjZkoPSQtINy3XwLuV-2">
          <mxGeometry relative="1" as="geometry" />
        </mxCell>
        <mxCell id="-rKjZkoPSQtINy3XwLuV-1" value="app" style="rounded=0;whiteSpace=wrap;html=1;" vertex="1" parent="1">
          <mxGeometry x="365" width="120" height="60" as="geometry" />
        </mxCell>
        <mxCell id="-rKjZkoPSQtINy3XwLuV-5" style="edgeStyle=orthogonalEdgeStyle;rounded=0;orthogonalLoop=1;jettySize=auto;html=1;entryX=0.5;entryY=0;entryDx=0;entryDy=0;" edge="1" parent="1" source="-rKjZkoPSQtINy3XwLuV-2" target="-rKjZkoPSQtINy3XwLuV-4">
          <mxGeometry relative="1" as="geometry" />
        </mxCell>
        <mxCell id="-rKjZkoPSQtINy3XwLuV-42" style="edgeStyle=orthogonalEdgeStyle;rounded=0;orthogonalLoop=1;jettySize=auto;html=1;entryX=0.5;entryY=1;entryDx=0;entryDy=0;" edge="1" parent="1" source="-rKjZkoPSQtINy3XwLuV-2" target="-rKjZkoPSQtINy3XwLuV-41">
          <mxGeometry relative="1" as="geometry" />
        </mxCell>
        <mxCell id="-rKjZkoPSQtINy3XwLuV-2" value="v1" style="rounded=0;whiteSpace=wrap;html=1;" vertex="1" parent="1">
          <mxGeometry x="730" width="120" height="60" as="geometry" />
        </mxCell>
        <mxCell id="-rKjZkoPSQtINy3XwLuV-11" style="edgeStyle=orthogonalEdgeStyle;rounded=0;orthogonalLoop=1;jettySize=auto;html=1;entryX=0;entryY=0.5;entryDx=0;entryDy=0;" edge="1" parent="1" source="-rKjZkoPSQtINy3XwLuV-4" target="-rKjZkoPSQtINy3XwLuV-10">
          <mxGeometry relative="1" as="geometry" />
        </mxCell>
        <mxCell id="-rKjZkoPSQtINy3XwLuV-19" style="edgeStyle=orthogonalEdgeStyle;rounded=0;orthogonalLoop=1;jettySize=auto;html=1;entryX=0;entryY=0.5;entryDx=0;entryDy=0;" edge="1" parent="1" source="-rKjZkoPSQtINy3XwLuV-4" target="-rKjZkoPSQtINy3XwLuV-18">
          <mxGeometry relative="1" as="geometry" />
        </mxCell>
        <mxCell id="-rKjZkoPSQtINy3XwLuV-56" style="edgeStyle=orthogonalEdgeStyle;rounded=0;orthogonalLoop=1;jettySize=auto;html=1;entryX=0;entryY=0.5;entryDx=0;entryDy=0;" edge="1" parent="1" source="-rKjZkoPSQtINy3XwLuV-4" target="-rKjZkoPSQtINy3XwLuV-55">
          <mxGeometry relative="1" as="geometry" />
        </mxCell>
        <mxCell id="-rKjZkoPSQtINy3XwLuV-4" value="api" style="rounded=0;whiteSpace=wrap;html=1;" vertex="1" parent="1">
          <mxGeometry x="730" y="160" width="120" height="60" as="geometry" />
        </mxCell>
        <mxCell id="-rKjZkoPSQtINy3XwLuV-6" value="sign-up&lt;br&gt;?" style="rounded=0;whiteSpace=wrap;html=1;strokeColor=#FFFF00;" vertex="1" parent="1">
          <mxGeometry x="1080" y="100" width="120" height="60" as="geometry" />
        </mxCell>
        <mxCell id="-rKjZkoPSQtINy3XwLuV-7" value="sign-in&lt;br&gt;?" style="rounded=0;whiteSpace=wrap;html=1;strokeColor=#FFFF00;" vertex="1" parent="1">
          <mxGeometry x="1240" y="100" width="120" height="60" as="geometry" />
        </mxCell>
        <mxCell id="-rKjZkoPSQtINy3XwLuV-8" value="sign-out&lt;br&gt;!" style="rounded=0;whiteSpace=wrap;html=1;strokeColor=#FFFF00;" vertex="1" parent="1">
          <mxGeometry x="1400" y="100" width="120" height="60" as="geometry" />
        </mxCell>
        <mxCell id="-rKjZkoPSQtINy3XwLuV-9" value="me&lt;br&gt;?" style="rounded=0;whiteSpace=wrap;html=1;strokeColor=#FFFF00;" vertex="1" parent="1">
          <mxGeometry x="1560" y="100" width="120" height="60" as="geometry" />
        </mxCell>
        <mxCell id="-rKjZkoPSQtINy3XwLuV-12" style="edgeStyle=orthogonalEdgeStyle;rounded=0;orthogonalLoop=1;jettySize=auto;html=1;entryX=0.5;entryY=1;entryDx=0;entryDy=0;" edge="1" parent="1" source="-rKjZkoPSQtINy3XwLuV-10" target="-rKjZkoPSQtINy3XwLuV-6">
          <mxGeometry relative="1" as="geometry" />
        </mxCell>
        <mxCell id="-rKjZkoPSQtINy3XwLuV-13" style="edgeStyle=orthogonalEdgeStyle;rounded=0;orthogonalLoop=1;jettySize=auto;html=1;entryX=0.5;entryY=1;entryDx=0;entryDy=0;" edge="1" parent="1" source="-rKjZkoPSQtINy3XwLuV-10" target="-rKjZkoPSQtINy3XwLuV-7">
          <mxGeometry relative="1" as="geometry" />
        </mxCell>
        <mxCell id="-rKjZkoPSQtINy3XwLuV-14" style="edgeStyle=orthogonalEdgeStyle;rounded=0;orthogonalLoop=1;jettySize=auto;html=1;entryX=0.5;entryY=1;entryDx=0;entryDy=0;" edge="1" parent="1" source="-rKjZkoPSQtINy3XwLuV-10" target="-rKjZkoPSQtINy3XwLuV-8">
          <mxGeometry relative="1" as="geometry" />
        </mxCell>
        <mxCell id="-rKjZkoPSQtINy3XwLuV-15" style="edgeStyle=orthogonalEdgeStyle;rounded=0;orthogonalLoop=1;jettySize=auto;html=1;entryX=0.5;entryY=1;entryDx=0;entryDy=0;" edge="1" parent="1" source="-rKjZkoPSQtINy3XwLuV-10" target="-rKjZkoPSQtINy3XwLuV-9">
          <mxGeometry relative="1" as="geometry" />
        </mxCell>
        <mxCell id="-rKjZkoPSQtINy3XwLuV-34" style="edgeStyle=orthogonalEdgeStyle;rounded=0;orthogonalLoop=1;jettySize=auto;html=1;entryX=0.5;entryY=1;entryDx=0;entryDy=0;" edge="1" parent="1" source="-rKjZkoPSQtINy3XwLuV-10" target="-rKjZkoPSQtINy3XwLuV-32">
          <mxGeometry relative="1" as="geometry" />
        </mxCell>
        <mxCell id="-rKjZkoPSQtINy3XwLuV-35" style="edgeStyle=orthogonalEdgeStyle;rounded=0;orthogonalLoop=1;jettySize=auto;html=1;entryX=0.5;entryY=1;entryDx=0;entryDy=0;" edge="1" parent="1" source="-rKjZkoPSQtINy3XwLuV-10" target="-rKjZkoPSQtINy3XwLuV-33">
          <mxGeometry relative="1" as="geometry" />
        </mxCell>
        <mxCell id="-rKjZkoPSQtINy3XwLuV-10" value="auth" style="rounded=0;whiteSpace=wrap;html=1;" vertex="1" parent="1">
          <mxGeometry x="920" y="160" width="120" height="60" as="geometry" />
        </mxCell>
        <mxCell id="-rKjZkoPSQtINy3XwLuV-37" style="edgeStyle=orthogonalEdgeStyle;rounded=0;orthogonalLoop=1;jettySize=auto;html=1;entryX=0.5;entryY=0;entryDx=0;entryDy=0;" edge="1" parent="1" source="-rKjZkoPSQtINy3XwLuV-18" target="-rKjZkoPSQtINy3XwLuV-20">
          <mxGeometry relative="1" as="geometry" />
        </mxCell>
        <mxCell id="-rKjZkoPSQtINy3XwLuV-38" style="edgeStyle=orthogonalEdgeStyle;rounded=0;orthogonalLoop=1;jettySize=auto;html=1;entryX=0.5;entryY=0;entryDx=0;entryDy=0;" edge="1" parent="1" source="-rKjZkoPSQtINy3XwLuV-18" target="-rKjZkoPSQtINy3XwLuV-21">
          <mxGeometry relative="1" as="geometry" />
        </mxCell>
        <mxCell id="-rKjZkoPSQtINy3XwLuV-39" style="edgeStyle=orthogonalEdgeStyle;rounded=0;orthogonalLoop=1;jettySize=auto;html=1;entryX=0.5;entryY=0;entryDx=0;entryDy=0;" edge="1" parent="1" source="-rKjZkoPSQtINy3XwLuV-18" target="-rKjZkoPSQtINy3XwLuV-22">
          <mxGeometry relative="1" as="geometry" />
        </mxCell>
        <mxCell id="-rKjZkoPSQtINy3XwLuV-40" style="edgeStyle=orthogonalEdgeStyle;rounded=0;orthogonalLoop=1;jettySize=auto;html=1;entryX=0.5;entryY=0;entryDx=0;entryDy=0;" edge="1" parent="1" source="-rKjZkoPSQtINy3XwLuV-18" target="-rKjZkoPSQtINy3XwLuV-23">
          <mxGeometry relative="1" as="geometry" />
        </mxCell>
        <mxCell id="-rKjZkoPSQtINy3XwLuV-18" value="user" style="rounded=0;whiteSpace=wrap;html=1;" vertex="1" parent="1">
          <mxGeometry x="920" y="260" width="120" height="60" as="geometry" />
        </mxCell>
        <mxCell id="-rKjZkoPSQtINy3XwLuV-20" value="/&lt;br&gt;!&lt;br&gt;(get profile)" style="rounded=0;whiteSpace=wrap;html=1;strokeColor=#00FF00;" vertex="1" parent="1">
          <mxGeometry x="1080" y="320" width="120" height="60" as="geometry" />
        </mxCell>
        <mxCell id="-rKjZkoPSQtINy3XwLuV-54" style="edgeStyle=orthogonalEdgeStyle;rounded=0;orthogonalLoop=1;jettySize=auto;html=1;entryX=0.5;entryY=0;entryDx=0;entryDy=0;" edge="1" parent="1" source="-rKjZkoPSQtINy3XwLuV-21" target="-rKjZkoPSQtINy3XwLuV-53">
          <mxGeometry relative="1" as="geometry" />
        </mxCell>
        <mxCell id="-rKjZkoPSQtINy3XwLuV-21" value="orders&lt;br&gt;!" style="rounded=0;whiteSpace=wrap;html=1;strokeColor=#00FF00;" vertex="1" parent="1">
          <mxGeometry x="1240" y="320" width="120" height="60" as="geometry" />
        </mxCell>
        <mxCell id="-rKjZkoPSQtINy3XwLuV-22" value="/&lt;br&gt;!&lt;br&gt;(update profile)" style="rounded=0;whiteSpace=wrap;html=1;strokeColor=#0000FF;" vertex="1" parent="1">
          <mxGeometry x="1400" y="320" width="120" height="60" as="geometry" />
        </mxCell>
        <mxCell id="-rKjZkoPSQtINy3XwLuV-23" value="/&lt;br&gt;!&lt;br&gt;(delete profile)" style="rounded=0;whiteSpace=wrap;html=1;strokeColor=#FF0000;" vertex="1" parent="1">
          <mxGeometry x="1560" y="320" width="120" height="60" as="geometry" />
        </mxCell>
        <mxCell id="-rKjZkoPSQtINy3XwLuV-24" value="GET" style="text;html=1;align=center;verticalAlign=middle;resizable=0;points=[];autosize=1;strokeColor=none;fillColor=none;fontColor=#00FF00;" vertex="1" parent="1">
          <mxGeometry x="400" y="80" width="50" height="30" as="geometry" />
        </mxCell>
        <mxCell id="-rKjZkoPSQtINy3XwLuV-26" value="POST" style="text;html=1;align=center;verticalAlign=middle;resizable=0;points=[];autosize=1;strokeColor=none;fillColor=none;fontColor=#FFFF00;" vertex="1" parent="1">
          <mxGeometry x="395" y="110" width="60" height="30" as="geometry" />
        </mxCell>
        <mxCell id="-rKjZkoPSQtINy3XwLuV-27" value="PUT" style="text;html=1;align=center;verticalAlign=middle;resizable=0;points=[];autosize=1;strokeColor=none;fillColor=none;fontColor=#0000FF;" vertex="1" parent="1">
          <mxGeometry x="400" y="140" width="50" height="30" as="geometry" />
        </mxCell>
        <mxCell id="-rKjZkoPSQtINy3XwLuV-28" value="DELETE" style="text;html=1;align=center;verticalAlign=middle;resizable=0;points=[];autosize=1;strokeColor=none;fillColor=none;fontColor=#FF0000;" vertex="1" parent="1">
          <mxGeometry x="390" y="170" width="70" height="30" as="geometry" />
        </mxCell>
        <mxCell id="-rKjZkoPSQtINy3XwLuV-29" value="Authorization" style="text;html=1;align=center;verticalAlign=middle;resizable=0;points=[];autosize=1;strokeColor=none;fillColor=none;" vertex="1" parent="1">
          <mxGeometry x="380" y="220" width="90" height="30" as="geometry" />
        </mxCell>
        <mxCell id="-rKjZkoPSQtINy3XwLuV-30" value="! -&amp;gt; required" style="text;html=1;align=center;verticalAlign=middle;resizable=0;points=[];autosize=1;strokeColor=none;fillColor=none;" vertex="1" parent="1">
          <mxGeometry x="380" y="250" width="90" height="30" as="geometry" />
        </mxCell>
        <mxCell id="-rKjZkoPSQtINy3XwLuV-31" value="? -&amp;gt; not required" style="text;html=1;align=center;verticalAlign=middle;resizable=0;points=[];autosize=1;strokeColor=none;fillColor=none;" vertex="1" parent="1">
          <mxGeometry x="370" y="280" width="110" height="30" as="geometry" />
        </mxCell>
        <mxCell id="-rKjZkoPSQtINy3XwLuV-32" value="verify-email&lt;br&gt;?" style="rounded=0;whiteSpace=wrap;html=1;strokeColor=#0000FF;" vertex="1" parent="1">
          <mxGeometry x="1720" y="100" width="120" height="60" as="geometry" />
        </mxCell>
        <mxCell id="-rKjZkoPSQtINy3XwLuV-33" value="forgot-password&lt;br&gt;?" style="rounded=0;whiteSpace=wrap;html=1;strokeColor=#0000FF;" vertex="1" parent="1">
          <mxGeometry x="1880" y="100" width="120" height="60" as="geometry" />
        </mxCell>
        <mxCell id="-rKjZkoPSQtINy3XwLuV-44" style="edgeStyle=orthogonalEdgeStyle;rounded=0;orthogonalLoop=1;jettySize=auto;html=1;entryX=0;entryY=0.5;entryDx=0;entryDy=0;" edge="1" parent="1" source="-rKjZkoPSQtINy3XwLuV-41" target="-rKjZkoPSQtINy3XwLuV-43">
          <mxGeometry relative="1" as="geometry" />
        </mxCell>
        <mxCell id="-rKjZkoPSQtINy3XwLuV-50" style="edgeStyle=orthogonalEdgeStyle;rounded=0;orthogonalLoop=1;jettySize=auto;html=1;entryX=0;entryY=0.5;entryDx=0;entryDy=0;" edge="1" parent="1" source="-rKjZkoPSQtINy3XwLuV-41" target="-rKjZkoPSQtINy3XwLuV-49">
          <mxGeometry relative="1" as="geometry" />
        </mxCell>
        <mxCell id="-rKjZkoPSQtINy3XwLuV-41" value="security" style="rounded=0;whiteSpace=wrap;html=1;" vertex="1" parent="1">
          <mxGeometry x="730" y="-160" width="120" height="60" as="geometry" />
        </mxCell>
        <mxCell id="-rKjZkoPSQtINy3XwLuV-47" style="edgeStyle=orthogonalEdgeStyle;rounded=0;orthogonalLoop=1;jettySize=auto;html=1;entryX=0.5;entryY=0;entryDx=0;entryDy=0;" edge="1" parent="1" source="-rKjZkoPSQtINy3XwLuV-43" target="-rKjZkoPSQtINy3XwLuV-45">
          <mxGeometry relative="1" as="geometry" />
        </mxCell>
        <mxCell id="-rKjZkoPSQtINy3XwLuV-48" style="edgeStyle=orthogonalEdgeStyle;rounded=0;orthogonalLoop=1;jettySize=auto;html=1;entryX=0.5;entryY=0;entryDx=0;entryDy=0;" edge="1" parent="1" source="-rKjZkoPSQtINy3XwLuV-43" target="-rKjZkoPSQtINy3XwLuV-46">
          <mxGeometry relative="1" as="geometry" />
        </mxCell>
        <mxCell id="-rKjZkoPSQtINy3XwLuV-43" value="csrf" style="rounded=0;whiteSpace=wrap;html=1;" vertex="1" parent="1">
          <mxGeometry x="920" y="-160" width="120" height="60" as="geometry" />
        </mxCell>
        <mxCell id="-rKjZkoPSQtINy3XwLuV-45" value="/&lt;br&gt;?&lt;br&gt;(get token)" style="rounded=0;whiteSpace=wrap;html=1;strokeColor=#00FF00;" vertex="1" parent="1">
          <mxGeometry x="1080" y="-100" width="120" height="60" as="geometry" />
        </mxCell>
        <mxCell id="-rKjZkoPSQtINy3XwLuV-46" value="/&lt;br&gt;?&lt;br&gt;(delete token)" style="rounded=0;whiteSpace=wrap;html=1;strokeColor=#FF0000;" vertex="1" parent="1">
          <mxGeometry x="1240" y="-100" width="120" height="60" as="geometry" />
        </mxCell>
        <mxCell id="-rKjZkoPSQtINy3XwLuV-52" style="edgeStyle=orthogonalEdgeStyle;rounded=0;orthogonalLoop=1;jettySize=auto;html=1;entryX=0.5;entryY=1;entryDx=0;entryDy=0;" edge="1" parent="1" source="-rKjZkoPSQtINy3XwLuV-49" target="-rKjZkoPSQtINy3XwLuV-51">
          <mxGeometry relative="1" as="geometry" />
        </mxCell>
        <mxCell id="-rKjZkoPSQtINy3XwLuV-49" value="access" style="rounded=0;whiteSpace=wrap;html=1;" vertex="1" parent="1">
          <mxGeometry x="920" y="-260" width="120" height="60" as="geometry" />
        </mxCell>
        <mxCell id="-rKjZkoPSQtINy3XwLuV-51" value="email&lt;br&gt;?" style="rounded=0;whiteSpace=wrap;html=1;strokeColor=#FFFF00;" vertex="1" parent="1">
          <mxGeometry x="1080" y="-320" width="120" height="60" as="geometry" />
        </mxCell>
        <mxCell id="-rKjZkoPSQtINy3XwLuV-53" value=":id&lt;br&gt;!&lt;br&gt;(get more info)" style="rounded=0;whiteSpace=wrap;html=1;strokeColor=#00FF00;" vertex="1" parent="1">
          <mxGeometry x="1240" y="420" width="120" height="60" as="geometry" />
        </mxCell>
        <mxCell id="-rKjZkoPSQtINy3XwLuV-58" style="edgeStyle=orthogonalEdgeStyle;rounded=0;orthogonalLoop=1;jettySize=auto;html=1;entryX=0.5;entryY=0;entryDx=0;entryDy=0;" edge="1" parent="1" source="-rKjZkoPSQtINy3XwLuV-55" target="-rKjZkoPSQtINy3XwLuV-57">
          <mxGeometry relative="1" as="geometry" />
        </mxCell>
        <mxCell id="-rKjZkoPSQtINy3XwLuV-67" style="edgeStyle=orthogonalEdgeStyle;rounded=0;orthogonalLoop=1;jettySize=auto;html=1;entryX=0.5;entryY=0;entryDx=0;entryDy=0;" edge="1" parent="1" source="-rKjZkoPSQtINy3XwLuV-55" target="-rKjZkoPSQtINy3XwLuV-65">
          <mxGeometry relative="1" as="geometry" />
        </mxCell>
        <mxCell id="-rKjZkoPSQtINy3XwLuV-55" value="seller" style="rounded=0;whiteSpace=wrap;html=1;" vertex="1" parent="1">
          <mxGeometry x="920" y="520" width="120" height="60" as="geometry" />
        </mxCell>
        <mxCell id="-rKjZkoPSQtINy3XwLuV-60" style="edgeStyle=orthogonalEdgeStyle;rounded=0;orthogonalLoop=1;jettySize=auto;html=1;entryX=0.5;entryY=0;entryDx=0;entryDy=0;" edge="1" parent="1" source="-rKjZkoPSQtINy3XwLuV-57" target="-rKjZkoPSQtINy3XwLuV-59">
          <mxGeometry relative="1" as="geometry" />
        </mxCell>
        <mxCell id="-rKjZkoPSQtINy3XwLuV-57" value=":id&lt;br&gt;?&lt;br&gt;(get seller profile)" style="rounded=0;whiteSpace=wrap;html=1;strokeColor=#00FF00;" vertex="1" parent="1">
          <mxGeometry x="1240" y="580" width="120" height="60" as="geometry" />
        </mxCell>
        <mxCell id="-rKjZkoPSQtINy3XwLuV-62" style="edgeStyle=orthogonalEdgeStyle;rounded=0;orthogonalLoop=1;jettySize=auto;html=1;entryX=0.5;entryY=0;entryDx=0;entryDy=0;" edge="1" parent="1" source="-rKjZkoPSQtINy3XwLuV-59" target="-rKjZkoPSQtINy3XwLuV-61">
          <mxGeometry relative="1" as="geometry" />
        </mxCell>
        <mxCell id="-rKjZkoPSQtINy3XwLuV-59" value=":categoryId&lt;br&gt;?&lt;br&gt;(get seller categories)" style="rounded=0;whiteSpace=wrap;html=1;strokeColor=#00FF00;" vertex="1" parent="1">
          <mxGeometry x="1240" y="680" width="120" height="60" as="geometry" />
        </mxCell>
        <mxCell id="-rKjZkoPSQtINy3XwLuV-61" value=":productId&lt;br&gt;?&lt;br&gt;(get category products)" style="rounded=0;whiteSpace=wrap;html=1;strokeColor=#00FF00;" vertex="1" parent="1">
          <mxGeometry x="1240" y="780" width="120" height="60" as="geometry" />
        </mxCell>
        <mxCell id="-rKjZkoPSQtINy3XwLuV-65" value="all&lt;br&gt;?&lt;br&gt;(get all sellers)" style="rounded=0;whiteSpace=wrap;html=1;strokeColor=#00FF00;" vertex="1" parent="1">
          <mxGeometry x="1080" y="580" width="120" height="60" as="geometry" />
        </mxCell>
      </root>
    </mxGraphModel>
  </diagram>
</mxfile>
